<svg xmlns="http://www.w3.org/2000/svg" viewBox="0 0 458.178 458.178"><path d="M130.415 277.741C95.083 313.074 45.038 324.723 0 312.697c5.918 22.164 17.568 43.116 34.956 60.504 52.721 52.721 138.198 52.721 190.919 0 26.361-26.36 26.36-69.099 0-95.459-26.361-26.362-69.099-26.362-95.46-.001zM212.771 234.276c12.728 4.827 24.403 12.338 34.317 22.252a96.882 96.882 0 0122.19 34.378l53.47-53.47-56.568-56.569-53.409 53.409zM446.462 57.153c-15.621-15.621-40.948-15.621-56.568 0L287.393 159.654l56.568 56.569 102.501-102.501c15.621-15.621 15.621-40.948 0-56.569z"/></svg>