<svg xmlns="http://www.w3.org/2000/svg" viewBox="0 0 16 16"><path d="M14 8c-.609 0-.898.43-1 .883C12.635 10.516 11.084 13 8 13a4.947 4.947 0 01-2.114-.474L6.414 12c.359-.344.586-.555.586-1 0-.523-.438-1-1-1H3c-.609 0-1 .492-1 1v3c0 .541.428 1 1 1 .484 0 .688-.273 1-.594l.408-.407A6.933 6.933 0 008 15c4.99 0 7-4.75 7-5.938C15 8.336 14.469 8 14 8zM3 7.117C3.365 5.485 4.916 3 8 3c.757 0 1.473.171 2.114.473L9.586 4C9.227 4.344 9 4.555 9 5c0 .523.438 1 1 1h3c.609 0 1-.492 1-1V2c0-.541-.428-1-1-1-.484 0-.688.273-1 .594l-.408.407A6.933 6.933 0 008 1C3.01 1 1 5.75 1 6.938 1 7.664 1.531 8 2 8c.609 0 .898-.43 1-.883z"/></svg>